<svg xmlns="http://www.w3.org/2000/svg" viewBox="0 0 260.9 50.44"><defs><style>.cls-1{fill:#fff;}</style></defs><g id="Layer_2" data-name="Layer 2"><g id="Layer_1-2" data-name="Layer 1"><path class="cls-1" d="M73.67,17.58a7.7,7.7,0,0,1,3.14,3A9.11,9.11,0,0,1,78,25.24a9.11,9.11,0,0,1-1.14,4.63,7.7,7.7,0,0,1-3.14,3A9.54,9.54,0,0,1,69.15,34a9.65,9.65,0,0,1-4.54-1.05,7.66,7.66,0,0,1-3.15-3,9.11,9.11,0,0,1-1.14-4.63,9.11,9.11,0,0,1,1.14-4.63,7.66,7.66,0,0,1,3.15-3,9.65,9.65,0,0,1,4.54-1A9.54,9.54,0,0,1,73.67,17.58Zm-7,4.54a4.38,4.38,0,0,0-1,3.12,4.33,4.33,0,0,0,1,3.11,3.49,3.49,0,0,0,5,0,4.37,4.37,0,0,0,1-3.11,4.42,4.42,0,0,0-1-3.12,3.45,3.45,0,0,0-5,0Z"/><path class="cls-1" d="M96.09,18.51a7.81,7.81,0,0,1,1.72,5.36v9.87h-5.2V24.48a3.75,3.75,0,0,0-.9-2.67,3.13,3.13,0,0,0-2.39-1,3.27,3.27,0,0,0-2.52,1,4.05,4.05,0,0,0-.93,2.86v9H80.66v-17h5.21v3.11a5.65,5.65,0,0,1,2.18-2.41,6.4,6.4,0,0,1,3.4-.88A5.86,5.86,0,0,1,96.09,18.51Z"/><path class="cls-1" d="M109.12,28.65l3.68-11.91h5.55l-6,17h-6.45l-6-17h5.55Z"/><path class="cls-1" d="M133,17.58a7.7,7.7,0,0,1,3.14,3,9.11,9.11,0,0,1,1.14,4.63,9.11,9.11,0,0,1-1.14,4.63,7.7,7.7,0,0,1-3.14,3,10.3,10.3,0,0,1-9.06,0,7.66,7.66,0,0,1-3.15-3,9.11,9.11,0,0,1-1.15-4.63,9.11,9.11,0,0,1,1.15-4.63,7.66,7.66,0,0,1,3.15-3,10.3,10.3,0,0,1,9.06,0Zm-7,4.54a4.33,4.33,0,0,0-1,3.12,4.29,4.29,0,0,0,1,3.11,3.49,3.49,0,0,0,5,0,4.37,4.37,0,0,0,1-3.11,4.42,4.42,0,0,0-1-3.12,3.45,3.45,0,0,0-5,0Z"/><path class="cls-1" d="M140.34,10a3.69,3.69,0,0,1,4.51,0,2.52,2.52,0,0,1,.84,1.77,2.66,2.66,0,0,1-.82,2.11,3.65,3.65,0,0,1-4.56,0,2.69,2.69,0,0,1-.82-2.11A2.57,2.57,0,0,1,140.34,10Zm4.84,6.75v17H140v-17Z"/><path class="cls-1" d="M162,18.34a8.07,8.07,0,0,1,2.8,5h-5.52a2.85,2.85,0,0,0-1-1.7,3,3,0,0,0-1.92-.61,2.77,2.77,0,0,0-2.25,1.08,4.87,4.87,0,0,0-.89,3.15,4.87,4.87,0,0,0,.89,3.15,2.77,2.77,0,0,0,2.25,1.08,3,3,0,0,0,1.92-.6,2.9,2.9,0,0,0,1-1.71h5.52a8.07,8.07,0,0,1-2.8,5A8.45,8.45,0,0,1,156.45,34,9.15,9.15,0,0,1,152,32.9a7.49,7.49,0,0,1-3-3,9.41,9.41,0,0,1-1.1-4.63A9.51,9.51,0,0,1,149,20.59a7.38,7.38,0,0,1,3-3,9.26,9.26,0,0,1,4.45-1A8.45,8.45,0,0,1,162,18.34Z"/><path class="cls-1" d="M171.41,16.74l4.08,10.42,3.81-10.42h5.76l-10.6,25.1h-5.73l4-8.74-7.13-16.36Z"/><path class="cls-1" d="M191.27,28.53v5.21h-5.39V28.53Zm15.9-10.19a8,8,0,0,1,2.8,5h-5.51a2.86,2.86,0,0,0-1-1.7,2.92,2.92,0,0,0-1.91-.61,2.79,2.79,0,0,0-2.26,1.08,4.87,4.87,0,0,0-.88,3.15,4.87,4.87,0,0,0,.88,3.15,2.79,2.79,0,0,0,2.26,1.08,3,3,0,0,0,1.91-.6,2.92,2.92,0,0,0,1-1.71H210a8,8,0,0,1-2.8,5A8.42,8.42,0,0,1,201.66,34a9.16,9.16,0,0,1-4.44-1.05,7.49,7.49,0,0,1-3-3,9.4,9.4,0,0,1-1.09-4.63,9.51,9.51,0,0,1,1.08-4.65,7.38,7.38,0,0,1,3-3,9.23,9.23,0,0,1,4.45-1A8.42,8.42,0,0,1,207.17,18.34Zm18-.76a7.76,7.76,0,0,1,3.14,3,9.11,9.11,0,0,1,1.14,4.63,9.11,9.11,0,0,1-1.14,4.63,7.76,7.76,0,0,1-3.14,3,10.3,10.3,0,0,1-9.06,0,7.68,7.68,0,0,1-3.16-3,9.11,9.11,0,0,1-1.14-4.63,9.11,9.11,0,0,1,1.14-4.63,7.68,7.68,0,0,1,3.16-3,10.3,10.3,0,0,1,9.06,0Zm-7,4.54a4.38,4.38,0,0,0-1,3.12,4.33,4.33,0,0,0,1,3.11,3.34,3.34,0,0,0,2.51,1.06,3.29,3.29,0,0,0,2.5-1.06,4.38,4.38,0,0,0,1-3.11,4.42,4.42,0,0,0-1-3.12,3.27,3.27,0,0,0-2.5-1.08A3.32,3.32,0,0,0,218.12,22.12Zm41-3.63a7.59,7.59,0,0,1,1.79,5.38v9.87h-5.17V24.48a3.43,3.43,0,0,0-.87-2.51,3.13,3.13,0,0,0-2.36-.9,3.17,3.17,0,0,0-2.45,1,3.77,3.77,0,0,0-.9,2.69v9h-5.21V24.48a3.47,3.47,0,0,0-.86-2.51,3.06,3.06,0,0,0-2.34-.9,3.27,3.27,0,0,0-2.47.94,3.73,3.73,0,0,0-.91,2.71v9h-5.21v-17h5.21v2.9a5,5,0,0,1,2-2.26,6.25,6.25,0,0,1,3.25-.82,6.51,6.51,0,0,1,3.44.9A5.6,5.6,0,0,1,248.35,20a6.86,6.86,0,0,1,2.43-2.53,6.32,6.32,0,0,1,3.39-.94A6.42,6.42,0,0,1,259.11,18.49Z"/><path class="cls-1" d="M48.93,13A15.93,15.93,0,0,0,37.48,1.51,49.43,49.43,0,0,0,25.22,0,49.43,49.43,0,0,0,13,1.51,15.93,15.93,0,0,0,1.51,13,49.57,49.57,0,0,0,0,25.22,49.43,49.43,0,0,0,1.51,37.48,15.93,15.93,0,0,0,13,48.93a49.43,49.43,0,0,0,12.26,1.51,49.43,49.43,0,0,0,12.26-1.51A15.93,15.93,0,0,0,48.93,37.48a49.43,49.43,0,0,0,1.51-12.26A49.43,49.43,0,0,0,48.93,13ZM14.18,25.87a2.69,2.69,0,1,1-5.37,0V22.8a2.69,2.69,0,0,1,5.37,0ZM21,31.57a2.68,2.68,0,0,1-5.36,0V15.38a2.68,2.68,0,1,1,5.36,0ZM27.9,35.2a2.55,2.55,0,0,1-2.54,2.55h-.28a2.55,2.55,0,0,1-2.54-2.55V21.91a2.55,2.55,0,0,1,2.54-2.55h.28a2.55,2.55,0,0,1,2.54,2.55Zm6.86-5.08a2.67,2.67,0,0,1-2.66,2.67h0a2.67,2.67,0,0,1-2.66-2.67V20a2.66,2.66,0,0,1,2.66-2.66h0A2.66,2.66,0,0,1,34.76,20Zm6.87-4.76a2.69,2.69,0,1,1-5.37,0V23.81a2.69,2.69,0,1,1,5.37,0Z"/></g></g></svg>